<svg t="1599183602708" class="icon" viewBox="0 0 1151 1024" version="1.1" xmlns="http://www.w3.org/2000/svg" p-id="3327" width="200" height="200"><path d="M1023.98848 128.00864H799.98488V64.00432A64.084959 64.084959 0 0 0 735.98056 0H415.99352a64.084959 64.084959 0 0 0-64.00432 64.00432v64.00432H127.99712A128.123838 128.123838 0 0 0 0 256.00576v639.9856a128.123838 128.123838 0 0 0 127.99712 127.99712h895.99136A128.123838 128.123838 0 0 0 1151.9856 895.99136V256.00576a128.123838 128.123838 0 0 0-127.99712-127.99712zM415.99352 64.00432h319.99856v64.00432H415.99352z m-287.9964 127.99712h895.99136a64.084959 64.084959 0 0 1 64.00432 64.00432v191.98992H64.00432V256.00576a64.084959 64.084959 0 0 1 63.9928-64.00432z m538.092474 319.99856C652.841759 549.163055 617.706199 576.00432 575.9928 576.00432s-76.848959-26.841264-90.096794-64.00432z m357.898886 447.99568H127.99712a64.084959 64.084959 0 0 1-64.00432-64.00432V512h355.2378c14.872134 72.932208 79.487006 127.99712 156.7622 127.99712s141.890066-55.064912 156.762201-127.99712h355.226279v383.99136a64.084959 64.084959 0 0 1-63.9928 64.00432z" p-id="3328"></path></svg>